<svg width="1149" height="314" viewBox="0 0 1149 314" fill="none" xmlns="http://www.w3.org/2000/svg">
<path d="M277.454 95.8124C279.452 89.2817 280.533 82.3284 280.533 75.1337C280.533 36.6736 249.825 5.50465 211.96 5.50465C199.298 5.50465 187.433 8.99333 177.257 15.0654C165.023 5.61328 149.77 0 133.221 0C93.0255 0 60.4387 33.0883 60.4387 73.9024C60.4387 75.3027 60.4863 76.6909 60.5576 78.0671C39.7049 89.7404 25.5812 112.266 25.5812 138.148C25.5812 176.016 55.814 206.726 93.1207 206.726C94.1906 206.726 95.2606 206.702 96.3187 206.642V213.704C96.3187 229.023 108.552 241.444 123.639 241.444H139.106L140.794 285.795C140.794 285.795 118.384 297.891 115.15 308.961C111.917 320.031 149.271 311.423 156.535 297.07V241.444H189.05V296.455C196.314 310.808 233.668 319.415 230.435 308.345C227.201 297.276 204.791 285.18 204.791 285.18L206.455 241.444H216.228C231.314 241.444 243.548 229.023 243.548 213.704V210.565C273.876 203.829 296.583 176.402 296.583 143.592C296.583 125.014 289.284 108.162 277.454 95.8124Z" fill="white"/>
<path d="M285.051 141.082C284.088 172.058 259.276 197.227 228.782 198.193C217.072 198.567 206.122 195.404 196.849 189.694C196.029 189.187 195.113 188.934 194.186 188.934C192.902 188.934 191.63 189.417 190.631 190.334C188.159 192.604 188.349 196.635 191.071 198.615C214.207 215.528 232.646 208.936 232.646 208.936V210.614C232.646 222.493 223.171 232.114 211.472 232.114H127.419C115.721 232.114 106.246 222.493 106.246 210.614V205.037C120.369 206.414 134.79 195.718 143.921 187.135C145.966 185.228 147.737 183.417 149.176 181.872C150.269 180.713 150.792 179.228 150.792 177.755C150.792 175.981 150.02 174.219 148.522 173.048C146.013 171.08 142.411 171.478 140.402 173.965C134.636 181.099 127.265 186.821 118.824 190.576C111.358 193.919 103.059 195.706 94.3451 195.537C63.5535 194.945 38.2901 169.631 37.3509 138.366C36.7683 119.015 45.3638 101.692 59.0239 90.5139C59.8918 93.5439 61.1282 97.2378 62.7807 100.57C63.9458 102.948 65.3368 105.145 66.9298 106.786C68.8083 108.718 71.8636 108.802 73.9323 107.064L74.0393 106.968C75.5848 105.676 76.203 103.648 75.7988 101.741C75.6918 101.246 75.5016 100.751 75.2519 100.28C73.4448 96.9843 70.9839 91.4918 69.4265 83.947C69.3908 83.947 69.3432 83.959 69.2957 83.959C69.1768 83.959 69.0698 83.9349 68.9509 83.9228C68.7964 82.3777 68.6775 80.8204 68.6061 79.2632C68.5705 78.394 68.5467 77.5249 68.5467 76.6436C68.5467 40.1149 97.7096 10.4912 133.697 10.4912C145.835 10.4912 156 14.1851 165.737 20.0519C164.964 20.6676 164.215 21.2832 163.478 21.9109C152.088 31.5924 145.942 41.479 142.875 47.7925C141.234 51.1605 143.077 55.2165 146.667 56.0978C149.259 56.7376 151.946 55.4821 153.158 53.0799C168.447 22.925 195.518 16.9857 214.468 16.9737C218.974 16.9737 223.42 18.0963 227.308 20.3899L227.367 20.4261C251.632 28.7676 269.085 52.0658 269.085 79.5046C269.085 85.3111 268.288 90.9123 266.826 96.2479C278.489 107.438 285.598 123.409 285.051 141.082Z" fill="#5956E9"/>
<path d="M118.848 190.575C111.382 193.919 103.083 195.706 94.3689 195.537C63.5773 194.945 38.3139 169.631 37.3747 138.366C36.7921 119.015 45.3876 101.692 59.0477 90.5137C59.9156 93.5436 61.152 97.2376 62.8045 100.569C58.9526 110.396 33.6179 182.729 118.646 190.624L118.848 190.575Z" fill="#4E4EEA"/>
<path d="M145.68 232.113H127.431C115.733 232.113 106.258 222.492 106.258 210.613V205.036C120.381 206.412 134.802 195.717 143.933 187.134C143.873 192.735 141.65 204.046 125.91 210.855C125.91 210.855 131.676 222.661 145.68 232.113Z" fill="#4E4EEA"/>
<path d="M165.748 20.0507C164.976 20.6663 164.227 21.282 163.49 21.9097C144.824 17.2863 79.5675 7.90665 76.1079 101.776L75.8107 101.715C75.7037 101.22 75.5135 100.725 75.2638 100.254C73.4567 96.9589 70.9958 91.4664 69.4384 83.9216C69.4027 83.9216 69.3551 83.9337 69.3076 83.9337C69.1887 83.9337 69.0817 83.9095 68.9628 83.8975C68.8083 82.3523 68.6894 80.795 68.618 79.2378C68.5824 78.3687 68.5586 77.4995 68.5586 76.6183C68.5586 40.0896 97.7215 10.4658 133.708 10.4658C145.859 10.49 156.023 14.1839 165.748 20.0507Z" fill="#4E4EEA"/>
<path d="M97.5789 119.883C96.925 117.312 94.3452 115.754 91.801 116.418C83.8594 118.495 78.8186 121.983 75.6562 125.882C65.9194 120.571 30.8478 97.2245 32.7025 37.3855C34.3312 36.5043 35.96 35.285 37.4579 33.764C42.5819 28.5611 44.2345 21.8131 41.1553 18.6865C38.302 15.7894 32.3815 17.0207 27.4477 21.3544C25.7 8.78785 18.2696 -0.531462 10.8036 0.506697C3.3137 1.55693 -1.35854 12.6508 0.353425 25.2777C1.45907 33.4502 4.97811 40.2706 9.35314 43.7714C12.147 59.3921 24.9154 113.34 70.7937 138.244C70.6511 139.777 70.6511 141.226 70.7343 142.493C70.9602 146.187 71.828 149.386 72.5176 151.426C73.7065 154.903 74.7764 157.401 77.7605 157.8C77.9745 157.824 78.1766 157.836 78.3787 157.836C80.3998 157.836 82.2306 156.532 82.8845 154.54C83.3838 153.032 83.1104 151.462 82.2782 150.255C81.7194 149.048 78.5095 141.455 81.2439 134.96C83.0747 130.602 87.426 127.5 94.1787 125.738C96.711 125.098 98.2328 122.466 97.5789 119.883Z" fill="white"/>
<path d="M166.307 147.466C159.721 147.466 151.53 143.531 143.291 129.407C141.959 127.113 142.708 124.168 144.955 122.804C147.214 121.452 150.115 122.212 151.458 124.494C155.132 130.795 160.779 138.231 166.854 137.797C173.119 137.35 178.838 128.67 180.086 125.918C180.692 123.709 182.785 122.2 185.115 122.417C187.338 122.635 189.133 124.421 189.383 126.679C189.692 129.407 186.494 134.054 184.556 136.589C181.917 140.042 177.578 144.569 171.942 146.5C170.254 147.08 168.364 147.466 166.307 147.466Z" fill="white"/>
<path d="M286.965 222.057C283.494 176.354 261.107 138.063 256.946 131.279C257.315 129.963 257.565 128.707 257.719 127.573C258.23 123.915 258.016 120.607 257.743 118.471C257.279 114.825 256.721 112.157 253.867 111.155C251.715 110.395 249.338 111.3 248.196 113.304C247.412 114.68 247.376 116.274 247.947 117.626C248.244 118.917 249.885 127.017 245.914 132.824C243.251 136.711 238.376 138.86 231.421 139.21C228.806 139.343 226.785 141.6 226.916 144.256C227.046 146.827 229.139 148.831 231.647 148.831C231.731 148.831 231.802 148.831 231.885 148.831C238.626 148.493 243.643 146.815 247.364 144.461C271.153 172.491 266.172 220.222 266.172 220.222C261.286 229.288 257.256 236.29 256.982 242.156C255.829 267.06 290.068 262.871 286.965 222.057Z" fill="white"/>
<path d="M200.88 112.049C208.391 112.049 214.48 105.866 214.48 98.2386C214.48 90.6116 208.391 84.4287 200.88 84.4287C193.368 84.4287 187.279 90.6116 187.279 98.2386C187.279 105.866 193.368 112.049 200.88 112.049Z" fill="white"/>
<path d="M203.507 100.556C205.851 100.556 207.751 98.6262 207.751 96.2461C207.751 93.866 205.851 91.9365 203.507 91.9365C201.163 91.9365 199.263 93.866 199.263 96.2461C199.263 98.6262 201.163 100.556 203.507 100.556Z" fill="#FCFCFC"/>
<path d="M132.781 112.049C140.293 112.049 146.382 105.866 146.382 98.2386C146.382 90.6116 140.293 84.4287 132.781 84.4287C125.27 84.4287 119.181 90.6116 119.181 98.2386C119.181 105.866 125.27 112.049 132.781 112.049Z" fill="white"/>
<path d="M135.397 100.556C137.741 100.556 139.641 98.6262 139.641 96.2461C139.641 93.866 137.741 91.9365 135.397 91.9365C133.053 91.9365 131.152 93.866 131.152 96.2461C131.152 98.6262 133.053 100.556 135.397 100.556Z" fill="#FCFCFC"/>
<path d="M403.213 97.9004H416.718V208.621H391.538V189.802H332.844C330.573 196.489 329.027 202.767 328.207 208.621H302.254C302.967 199.833 304.775 190.973 307.664 182.04C310.541 173.094 314.297 164.524 318.934 156.315C323.571 148.106 328.968 140.453 335.15 133.343C341.332 126.232 348.025 120.064 355.23 114.837C362.435 109.61 370.103 105.481 378.246 102.451C386.39 99.4214 394.712 97.9004 403.213 97.9004ZM391.538 123.625C386.592 124.675 381.884 126.474 377.402 129.033C372.92 131.592 368.7 134.683 364.741 138.292C360.77 141.901 357.097 145.921 353.696 150.364C350.296 154.806 347.205 159.441 344.423 164.246H391.538V123.625Z" fill="white"/>
<path d="M429.998 208.621V141.503H503.672C505.634 141.503 507.274 141.213 508.618 140.634C509.949 140.054 510.983 139.318 511.709 138.413C512.422 137.519 512.945 136.542 513.254 135.491C513.563 134.441 513.718 133.379 513.718 132.329C513.718 130.325 513.016 128.345 511.637 126.401C510.246 124.446 507.595 123.468 503.684 123.468H426.919L442.362 97.9004H503.684C508.939 97.9004 513.837 98.7937 518.402 100.568C522.967 102.343 526.783 104.962 529.851 108.415C535.89 115.416 538.91 123.42 538.91 132.413C538.91 136.699 538.137 140.912 536.592 145.04C535.046 149.169 532.787 153.068 529.803 156.725C526.724 160.286 522.884 162.978 518.319 164.801C513.742 166.636 508.843 167.542 503.601 167.542H455.178V208.633H429.998V208.621Z" fill="white"/>
<path d="M549.55 208.621V141.503H623.224C625.186 141.503 626.826 141.213 628.17 140.634C629.501 140.054 630.536 139.318 631.261 138.413C631.974 137.519 632.497 136.542 632.806 135.491C633.115 134.441 633.27 133.379 633.27 132.329C633.27 130.325 632.569 128.345 631.189 126.401C629.798 124.446 627.147 123.468 623.236 123.468H546.471L561.914 97.9004H623.236C628.491 97.9004 633.389 98.7937 637.954 100.568C642.519 102.343 646.336 104.962 649.403 108.415C655.442 115.416 658.462 123.42 658.462 132.413C658.462 136.699 657.689 140.912 656.144 145.04C654.598 149.169 652.339 153.068 649.355 156.725C646.276 160.286 642.436 162.978 637.871 164.801C633.294 166.636 628.396 167.542 623.153 167.542H574.742V208.633H549.55V208.621Z" fill="white"/>
<path d="M669.102 135.697C669.102 130.989 669.947 126.365 671.647 121.814C673.347 117.263 675.843 113.243 679.137 109.743C682.43 106.242 686.496 103.393 691.334 101.196C696.173 98.9989 701.677 97.9004 707.859 97.9004H773.651V123.468H709.702C707.229 123.468 705.042 123.939 703.14 124.88C701.237 125.822 699.633 127.077 698.349 128.647C697.065 130.216 696.054 132.051 695.341 134.139C694.615 136.228 694.259 138.425 694.259 140.73V152.959V166.443C694.259 170.837 695.626 174.652 698.349 177.887C701.071 181.134 704.864 182.752 709.702 182.752H773.651V208.633H707.859C701.475 208.633 695.864 207.511 691.025 205.265C686.186 203.02 682.144 200.111 678.899 196.562C675.653 193.013 673.204 189.029 671.563 184.647C669.911 180.253 669.091 175.968 669.091 171.791V153.285V135.697H669.102Z" fill="#5956E9"/>
<path d="M786.8 172.237V134.912C786.8 129.685 787.751 124.82 789.654 120.329C791.556 115.839 794.136 111.916 797.381 108.572C800.627 105.228 804.455 102.608 808.889 100.725C813.312 98.842 818.103 97.9004 823.251 97.9004H869.902C874.848 97.9004 879.472 98.842 883.8 100.725C888.127 102.608 891.908 105.216 895.153 108.572C898.399 111.916 900.967 115.839 902.881 120.329C904.783 124.82 905.734 129.685 905.734 134.912V172.237C905.734 177.259 904.783 181.955 902.881 186.349C900.979 190.743 898.399 194.582 895.153 197.877C891.908 201.173 888.127 203.78 883.8 205.724C879.472 207.655 874.836 208.621 869.902 208.621H823.251C818.103 208.621 813.312 207.655 808.889 205.724C804.467 203.793 800.627 201.173 797.381 197.877C794.136 194.582 791.568 190.743 789.654 186.349C787.751 181.967 786.8 177.259 786.8 172.237ZM880.554 172.237V134.912C880.554 131.568 879.52 128.828 877.463 126.679C875.406 124.542 872.886 123.468 869.89 123.468H823.251C820.16 123.468 817.509 124.542 815.297 126.679C813.086 128.828 811.98 131.568 811.98 134.912V172.237C811.98 175.171 813.086 177.645 815.297 179.686C817.509 181.726 820.16 182.74 823.251 182.74H869.902C872.886 182.74 875.406 181.726 877.475 179.686C879.52 177.645 880.554 175.171 880.554 172.237Z" fill="#5956E9"/>
<path d="M1000.77 208.621L981.655 167.372H944.349V208.621H919.168V141.334H992.843C994.804 141.334 996.445 141.044 997.788 140.477C999.12 139.897 1000.15 139.197 1000.88 138.364C1001.59 137.531 1002.12 136.614 1002.42 135.624C1002.73 134.634 1002.89 133.668 1002.89 132.727C1002.89 131.785 1002.73 130.771 1002.42 129.673C1002.12 128.574 1001.58 127.584 1000.81 126.691C1000.04 125.81 999.001 125.049 997.717 124.421C996.433 123.794 994.804 123.48 992.854 123.48H916.089L931.533 97.9121H992.854C998.109 97.9121 1003.01 98.8537 1007.57 100.737C1012.14 102.62 1015.95 105.228 1019.02 108.583C1021.99 112.132 1024.24 115.959 1025.77 120.027C1027.31 124.108 1028.08 128.345 1028.08 132.727C1028.08 136.698 1027.31 140.754 1025.76 144.883C1024.22 149.011 1021.96 152.91 1018.97 156.568C1017.54 158.246 1015.97 159.707 1014.27 160.962C1012.57 162.218 1010.75 163.268 1008.8 164.101L1029.46 208.645H1000.77V208.621Z" fill="#5956E9"/>
<path d="M1126.29 208.621C1123.82 208.621 1121.43 208.053 1119.11 206.894C1116.79 205.748 1114.58 204.287 1112.47 202.5C1110.35 200.726 1108.38 198.71 1106.52 196.464C1104.67 194.219 1103.01 191.998 1101.58 189.801L1065.59 135.068V208.621H1040.41V98.0566H1059.41C1061.26 98.0566 1063.21 98.4429 1065.28 99.2276C1067.34 100.012 1069.37 101.062 1071.38 102.366C1073.39 103.67 1075.29 105.239 1077.1 107.074C1078.9 108.909 1080.52 110.865 1081.96 112.953L1123.51 177.102V98.0566H1149V208.621H1126.29Z" fill="#5956E9"/>
</svg>
