<svg width="943" height="478" viewBox="0 0 943 478" fill="none" xmlns="http://www.w3.org/2000/svg">
<path d="M617.59 105.09C619.82 97.92 621.01 90.31 621.01 82.41C621.01 40.23 586.82 6.03 544.63 6.03C530.53 6.03 517.32 9.86 505.98 16.52C492.36 6.15 475.37 0 456.93 0C412.16 0 375.87 36.29 375.87 81.06C375.87 82.59 375.92 84.12 376 85.63C352.78 98.43 337.04 123.14 337.04 151.53C337.04 193.07 370.71 226.74 412.25 226.74C413.44 226.74 414.63 226.71 415.81 226.65V234.4C415.81 251.21 429.43 264.83 446.24 264.83H463.47L465.35 313.47C465.35 313.47 440.39 326.74 436.79 338.88C433.19 351.02 474.79 341.58 482.89 325.84V264.83H519.1V325.17C527.19 340.91 568.79 350.35 565.2 338.21C561.6 326.07 536.64 312.8 536.64 312.8L538.49 264.83H549.38C566.19 264.83 579.81 251.21 579.81 234.4V230.96C613.58 223.57 638.87 193.5 638.87 157.5C638.89 137.12 630.77 118.64 617.59 105.09Z" fill="#1C1C1C"/>
<path d="M626.05 154.74C624.98 188.71 597.35 216.32 563.38 217.37C550.34 217.78 538.14 214.31 527.82 208.05C526.9 207.5 525.88 207.22 524.86 207.22C523.43 207.22 522.02 207.75 520.91 208.75C518.15 211.24 518.37 215.66 521.39 217.84C547.15 236.4 567.7 229.16 567.7 229.16V231C567.7 244.03 557.15 254.58 544.12 254.58H450.51C437.48 254.58 426.93 244.03 426.93 231V224.89C442.66 226.4 458.72 214.67 468.89 205.25C471.16 203.15 473.13 201.17 474.75 199.47C475.97 198.19 476.56 196.57 476.56 194.96C476.56 193.01 475.7 191.09 474.03 189.79C471.24 187.63 467.22 188.07 464.99 190.79C458.57 198.61 450.35 204.89 440.96 209.01C432.65 212.67 423.41 214.64 413.69 214.45C379.4 213.81 351.27 186.03 350.21 151.74C349.57 130.52 359.13 111.52 374.35 99.26C375.31 102.58 376.69 106.63 378.53 110.29C379.83 112.9 381.37 115.31 383.15 117.11C385.25 119.23 388.65 119.32 390.94 117.41L391.05 117.3C392.77 115.88 393.46 113.65 393.01 111.57C392.89 111.02 392.68 110.48 392.4 109.97C390.38 106.35 387.64 100.34 385.91 92.06C385.87 92.06 385.82 92.08 385.77 92.08C385.64 92.08 385.52 92.05 385.39 92.04C385.21 90.35 385.08 88.64 385.01 86.92C384.97 85.97 384.95 85.01 384.95 84.05C384.95 43.98 417.43 11.5 457.5 11.5C471.02 11.5 482.34 15.55 493.18 21.99C492.32 22.67 491.48 23.35 490.66 24.03C477.98 34.64 471.14 45.49 467.71 52.41C465.88 56.11 467.93 60.55 471.94 61.53C474.82 62.23 477.81 60.86 479.17 58.22C496.2 25.15 526.34 18.63 547.45 18.62C552.47 18.62 557.42 19.85 561.75 22.37L561.82 22.41C588.84 31.56 608.29 57.11 608.29 87.21C608.29 93.58 607.41 99.72 605.78 105.57C618.74 117.84 626.65 135.36 626.05 154.74Z" fill="#5956E9"/>
<path d="M440.95 209.02C432.64 212.68 423.4 214.65 413.68 214.46C379.39 213.82 351.26 186.04 350.2 151.75C349.56 130.53 359.12 111.53 374.34 99.2695C375.3 102.59 376.68 106.64 378.52 110.3C374.23 121.08 346.01 200.41 440.71 209.08L440.95 209.02Z" fill="#4E4EEA"/>
<path d="M470.83 254.58H450.5C437.47 254.58 426.92 244.03 426.92 231V224.89C442.65 226.4 458.71 214.67 468.88 205.25C468.82 211.39 466.34 223.81 448.81 231.27C448.82 231.27 455.24 244.22 470.83 254.58Z" fill="#4E4EEA"/>
<path d="M493.19 21.9998C492.33 22.6798 491.49 23.3598 490.67 24.0398C469.88 18.9698 397.21 8.67979 393.35 111.64L393.02 111.58C392.9 111.03 392.69 110.49 392.41 109.98C390.39 106.36 387.65 100.35 385.92 92.0698C385.88 92.0698 385.83 92.0898 385.78 92.0898C385.65 92.0898 385.53 92.0598 385.4 92.0498C385.22 90.3598 385.09 88.6498 385.02 86.9298C384.98 85.9798 384.96 85.0198 384.96 84.0598C384.96 43.9898 417.44 11.5098 457.51 11.5098C471.03 11.5098 482.35 15.5598 493.19 21.9998Z" fill="#4E4EEA"/>
<path d="M417.26 131.5C416.53 128.67 413.65 126.97 410.82 127.7C401.98 129.98 396.36 133.8 392.84 138.09C382 132.26 342.94 106.66 345 41.0302C346.82 40.0602 348.63 38.7302 350.3 37.0602C356 31.3602 357.84 23.9502 354.41 20.5202C351.23 17.3402 344.64 18.6902 339.15 23.4502C337.2 9.67015 328.92 -0.55985 320.62 0.59015C312.28 1.74015 307.07 13.9001 308.98 27.7601C310.22 36.7301 314.13 44.2002 319 48.0502C322.11 65.1802 336.33 124.35 387.42 151.67C387.26 153.36 387.26 154.94 387.35 156.33C387.6 160.38 388.57 163.89 389.34 166.12C390.66 169.94 391.85 172.67 395.18 173.11C395.41 173.14 395.64 173.16 395.87 173.16C398.12 173.16 400.16 171.72 400.89 169.55C401.44 167.9 401.14 166.17 400.21 164.84C399.59 163.51 396.01 155.19 399.06 148.06C401.1 143.28 405.95 139.88 413.46 137.94C416.29 137.2 417.99 134.32 417.26 131.5Z" fill="#1C1C1C"/>
<path d="M493.8 161.74C486.47 161.74 477.34 157.42 468.17 141.93C466.68 139.42 467.52 136.18 470.03 134.69C472.54 133.2 475.78 134.04 477.27 136.55C481.36 143.47 487.65 151.62 494.42 151.14C501.4 150.65 507.76 141.13 509.16 138.12C509.83 135.7 512.16 134.04 514.76 134.28C517.24 134.52 519.23 136.48 519.51 138.95C519.85 141.94 516.29 147.04 514.14 149.82C511.2 153.61 506.37 158.57 500.09 160.68C498.2 161.32 496.09 161.74 493.8 161.74Z" fill="#1C1C1C"/>
<path d="M628.18 243.561C624.31 193.441 599.39 151.441 594.75 143.991C595.16 142.551 595.44 141.171 595.61 139.921C596.18 135.911 595.94 132.281 595.63 129.941C595.11 125.941 594.49 123.021 591.31 121.921C588.92 121.091 586.27 122.081 585 124.271C584.13 125.771 584.08 127.531 584.72 129.011C585.06 130.431 586.88 139.311 582.46 145.681C579.49 149.951 574.06 152.301 566.32 152.691C563.41 152.831 561.16 155.311 561.3 158.231C561.44 161.061 563.78 163.251 566.57 163.251C566.66 163.251 566.75 163.251 566.83 163.241C574.34 162.871 579.92 161.031 584.06 158.451C610.56 189.191 605 241.541 605 241.541C599.56 251.491 595.07 259.161 594.77 265.601C593.5 292.911 631.63 288.331 628.18 243.561Z" fill="#1C1C1C"/>
<path d="M532.31 122.881C540.672 122.881 547.45 116.102 547.45 107.741C547.45 99.379 540.672 92.6006 532.31 92.6006C523.948 92.6006 517.17 99.379 517.17 107.741C517.17 116.102 523.948 122.881 532.31 122.881Z" fill="#1C1C1C"/>
<path d="M535.23 110.291C537.837 110.291 539.95 108.177 539.95 105.571C539.95 102.964 537.837 100.851 535.23 100.851C532.623 100.851 530.51 102.964 530.51 105.571C530.51 108.177 532.623 110.291 535.23 110.291Z" fill="#FCFCFC"/>
<path d="M456.46 122.881C464.821 122.881 471.6 116.102 471.6 107.741C471.6 99.379 464.821 92.6006 456.46 92.6006C448.098 92.6006 441.32 99.379 441.32 107.741C441.32 116.102 448.098 122.881 456.46 122.881Z" fill="#1C1C1C"/>
<path d="M459.38 110.291C461.987 110.291 464.1 108.177 464.1 105.571C464.1 102.964 461.987 100.851 459.38 100.851C456.773 100.851 454.66 102.964 454.66 105.571C454.66 108.177 456.773 110.291 459.38 110.291Z" fill="#FCFCFC"/>
<path d="M112.42 356.26H127.47V477.7H99.43V457.06H34.06C31.54 464.4 29.82 471.28 28.9 477.7H0C0.8 468.07 2.81 458.35 6.02 448.54C9.23 438.74 13.41 429.33 18.58 420.33C23.74 411.33 29.76 402.93 36.64 395.13C43.52 387.33 50.97 380.57 59 374.83C67.03 369.1 75.57 364.57 84.63 361.24C93.69 357.92 102.95 356.26 112.42 356.26ZM99.43 384.47C93.93 385.62 88.68 387.59 83.69 390.4C78.7 393.21 74 396.59 69.58 400.55C65.16 404.51 61.06 408.92 57.28 413.8C53.49 418.68 50.05 423.75 46.96 429.03H99.42V384.47H99.43Z" fill="#1C1C1C"/>
<path d="M142.26 477.7V404.08H224.31C226.49 404.08 228.32 403.76 229.81 403.13C231.3 402.5 232.45 401.69 233.25 400.7C234.05 399.72 234.63 398.65 234.97 397.49C235.31 396.33 235.49 395.17 235.49 394.02C235.49 391.82 234.71 389.66 233.17 387.52C231.62 385.38 228.67 384.31 224.31 384.31H138.82L156.02 356.27H224.31C230.16 356.27 235.62 357.24 240.7 359.19C245.78 361.14 250.03 364.009 253.45 367.789C260.18 375.479 263.54 384.249 263.54 394.109C263.54 398.809 262.68 403.43 260.96 407.96C259.24 412.49 256.72 416.76 253.4 420.78C249.97 424.68 245.7 427.63 240.61 429.64C235.52 431.65 230.05 432.65 224.21 432.65H170.3V477.719H142.26V477.7Z" fill="#1C1C1C"/>
<path d="M275.4 477.7V404.08H357.45C359.63 404.08 361.46 403.76 362.95 403.13C364.44 402.5 365.59 401.69 366.39 400.7C367.19 399.72 367.77 398.65 368.11 397.49C368.45 396.33 368.63 395.17 368.63 394.02C368.63 391.82 367.85 389.66 366.31 387.52C364.76 385.38 361.81 384.31 357.45 384.31H271.96L289.16 356.27H357.45C363.3 356.27 368.76 357.24 373.84 359.19C378.92 361.14 383.17 364.009 386.59 367.789C393.32 375.479 396.68 384.249 396.68 394.109C396.68 398.809 395.82 403.43 394.1 407.96C392.38 412.49 389.86 416.76 386.54 420.78C383.11 424.68 378.84 427.63 373.75 429.64C368.66 431.65 363.19 432.65 357.35 432.65H303.43V477.719H275.4V477.7Z" fill="#1C1C1C"/>
<path d="M408.54 397.71C408.54 392.55 409.49 387.47 411.38 382.48C413.27 377.49 416.05 373.08 419.72 369.23C423.39 365.39 427.92 362.26 433.31 359.86C438.7 357.45 444.83 356.25 451.72 356.25H525V384.29H453.79C451.04 384.29 448.6 384.81 446.48 385.84C444.36 386.87 442.58 388.25 441.15 389.97C439.72 391.69 438.6 393.7 437.8 395.99C437 398.29 436.6 400.69 436.6 403.22V416.64V431.43C436.6 436.25 438.12 440.43 441.16 443.99C444.2 447.55 448.41 449.32 453.8 449.32H525V477.7H451.72C444.61 477.7 438.36 476.47 432.97 474C427.58 471.54 423.08 468.35 419.47 464.45C415.86 460.55 413.13 456.19 411.3 451.38C409.46 446.56 408.55 441.86 408.55 437.27V416.97V397.71H408.54Z" fill="#5956E9"/>
<path d="M539.62 437.79V396.85C539.62 391.12 540.68 385.79 542.8 380.85C544.92 375.92 547.79 371.62 551.4 367.95C555.01 364.28 559.28 361.41 564.21 359.35C569.14 357.28 574.47 356.25 580.21 356.25H632.16C637.66 356.25 642.82 357.28 647.64 359.35C652.46 361.41 656.67 364.28 660.28 367.95C663.89 371.62 666.76 375.92 668.88 380.85C671 385.78 672.06 391.11 672.06 396.85V437.79C672.06 443.29 671 448.45 668.88 453.27C666.75 458.09 663.89 462.3 660.28 465.91C656.67 469.52 652.45 472.39 647.64 474.51C642.82 476.63 637.66 477.69 632.16 477.69H580.21C574.48 477.69 569.14 476.63 564.21 474.51C559.28 472.39 555.01 469.52 551.4 465.91C547.79 462.3 544.92 458.08 542.8 453.27C540.68 448.46 539.62 443.3 539.62 437.79ZM644.04 437.79V396.85C644.04 393.18 642.89 390.17 640.6 387.82C638.3 385.47 635.5 384.29 632.17 384.29H580.22C576.78 384.29 573.83 385.47 571.36 387.82C568.89 390.17 567.66 393.18 567.66 396.85V437.79C567.66 441 568.89 443.73 571.36 445.96C573.82 448.19 576.78 449.31 580.22 449.31H632.17C635.5 449.31 638.3 448.19 640.6 445.96C642.89 443.73 644.04 441 644.04 437.79Z" fill="#5956E9"/>
<path d="M777.92 477.7L756.63 432.46H715.08V477.7H687.04V403.9H769.09C771.27 403.9 773.1 403.59 774.59 402.96C776.08 402.33 777.23 401.55 778.03 400.64C778.83 399.72 779.41 398.72 779.75 397.63C780.09 396.54 780.27 395.48 780.27 394.45C780.27 393.42 780.1 392.299 779.75 391.099C779.41 389.899 778.8 388.81 777.94 387.83C777.08 386.86 775.93 386.02 774.5 385.34C773.06 384.65 771.26 384.31 769.08 384.31H683.6L700.8 356.27H769.09C774.94 356.27 780.4 357.3 785.48 359.37C790.56 361.43 794.81 364.299 798.23 367.969C801.54 371.869 804.04 376.05 805.75 380.53C807.46 385 808.31 389.65 808.31 394.46C808.31 398.82 807.45 403.259 805.73 407.789C804.01 412.319 801.49 416.589 798.17 420.599C796.57 422.439 794.82 424.039 792.93 425.419C791.04 426.799 789.01 427.949 786.84 428.859L809.85 477.71H777.92V477.7Z" fill="#5956E9"/>
<path d="M917.71 477.7C914.96 477.7 912.29 477.07 909.71 475.81C907.13 474.55 904.66 472.95 902.31 470.99C899.96 469.04 897.75 466.84 895.69 464.37C893.63 461.9 891.79 459.47 890.19 457.06L850.11 397.03V477.71H822.07V356.43H843.23C845.29 356.43 847.47 356.86 849.76 357.72C852.05 358.58 854.32 359.73 856.56 361.16C858.8 362.59 860.92 364.32 862.92 366.32C864.93 368.33 866.73 370.48 868.34 372.77L914.61 443.13V356.43H943V477.7H917.71Z" fill="#5956E9"/>
</svg>
