<?xml version="1.0" encoding="utf-8"?>
<!-- Generator: Adobe Illustrator 25.4.1, SVG Export Plug-In . SVG Version: 6.00 Build 0)  -->
<svg version="1.1" id="Layer_1" xmlns="http://www.w3.org/2000/svg" xmlns:xlink="http://www.w3.org/1999/xlink" x="0px" y="0px"
	 viewBox="0 0 566.4 316.3" style="enable-background:new 0 0 566.4 316.3;" xml:space="preserve">
<style type="text/css">
	.st0{fill:#FFFFFF;}
	.st1{fill:#3B4192;}
</style>
<g>
	<g id="BG">
		<path class="st0" d="M241.3,261.1h-121c-28.4,0-51.4-23-51.4-51.4V106.6c0-28.4,23-51.4,51.4-51.4h121c28.4,0,51.4,23,51.4,51.4
			v103.1C292.7,238.1,269.7,261.1,241.3,261.1z"/>
	</g>
	<path class="st1" d="M173.5,78.1c-2-3.8-6-6.2-10.3-6.2s-8.3,2.4-10.3,6.2L78.8,220.7c-3,5.7-0.7,12.7,4.9,15.6
		c1.7,0.9,3.5,1.3,5.3,1.3c4.2,0,8.2-2.3,10.3-6.2l63.9-122.8l63.9,122.8c2.9,5.7,9.9,7.9,15.6,4.9c5.7-3,7.9-9.9,4.9-15.6
		L173.5,78.1z M216.5,230l-7.4-14.3c-23-1.2-41.4-20.3-41.4-43.7c0-8.5,2.4-16.5,6.7-23.2l-11.1-21.3
		c-10.8,11.7-17.5,27.4-17.5,44.5c0,36.2,29.4,65.6,65.6,65.6c3.7,0,7.3-0.3,10.8-0.9C219.9,235,217.9,232.7,216.5,230z
		 M211.4,106.4c-4.2,0-8.3,0.4-12.3,1.2l10.8,20.8c0.5,0,1,0,1.5,0c24.1,0,43.7,19.6,43.7,43.7c0,9.9-3.3,19-8.8,26.3l6.6,12.7
		c1.6,3.1,2.4,6.5,2.3,9.8c13.4-12,21.8-29.5,21.8-48.8C277,135.9,247.6,106.4,211.4,106.4z"/>
	<path class="st0" d="M371.3,207.4c0,16.7-13.6,30.3-30.3,30.3s-30.2-13.6-30.2-30.3s13.6-30.3,30.3-30.3S371.3,190.7,371.3,207.4z
		 M360.5,207.4c0-10.7-8.7-19.4-19.4-19.4c-10.7,0-19.4,8.7-19.4,19.4s8.7,19.5,19.4,19.5C351.7,226.9,360.5,218.1,360.5,207.4z"/>
	<path class="st0" d="M426.9,182c2.9,3,4.8,7.1,4.8,11.6c0,6.6-3.9,12.3-9.5,14.9c-1.5,0.7-3,1.1-4.7,1.3c-0.2,0-0.3,0-0.5,0v0.1
		h-29v27.8h-10.8v-60.5h38.1C419.8,177.2,423.8,179,426.9,182L426.9,182z M417.6,198.5c2-0.9,3.3-2.9,3.3-5c0-2-1-3.4-1.6-4
		c-0.7-0.7-2-1.6-3.9-1.6H388v11.2h27.4C416.1,199.1,416.9,198.9,417.6,198.5L417.6,198.5z"/>
	<path class="st0" d="M486.7,193.9v-0.2c0-3.1-2.5-5.6-5.6-5.6h-24.4c-3.1,0-5.6,2.5-5.6,5.6v0.2c0,3.1,2.5,5.6,5.6,5.6h21.7
		c5.6,0,10.6,2.4,14.1,6.2c0.3,0.3,0.4,0.5,0.7,0.8c2.9,3.6,4.6,8.4,4.3,13.5c-0.7,10.1-9.5,17.7-19.6,17.7h-18.4
		c-10.5,0-19.1-8.5-19.1-19c0,0,0-0.1,0.1-0.1h10.6c0,0,0.1,0,0.1,0.1c0,4.6,3.7,8.2,8.3,8.2h18.7c4.2,0,7.9-3,8.5-7.1
		c0.7-5.1-3.3-9.5-8.3-9.5h-21.8c-4.4,0-8.4-1.7-11.3-4.6c-0.8-0.8-1.5-1.6-2.1-2.6c-1.8-2.6-2.9-5.8-2.9-9.2v-0.3
		c0-9,7.4-16.4,16.4-16.4h24.4c9,0,16.4,7.4,16.4,16.4v0.2c0,0,0,0.1-0.1,0.1L486.7,193.9L486.7,193.9z"/>
	<path class="st0" d="M426.9,113.9c2.9,3,4.8,7.1,4.8,11.6c0,6.6-3.9,12.3-9.5,14.9c-1.5,0.7-3,1.1-4.7,1.3c-0.2,0-0.3,0-0.5,0v0.1
		h-29v27.8h-10.8v-60.5h38.1C419.9,109,423.9,110.8,426.9,113.9L426.9,113.9z M417.7,130.4c2-0.9,3.3-2.9,3.3-5c0-2-1-3.4-1.6-4
		c-0.7-0.7-2-1.6-3.9-1.6h-27.4V131h27.4C416.2,131,417,130.8,417.7,130.4L417.7,130.4z"/>
	<path class="st0" d="M490,113.9c2.9,3,4.8,7.1,4.8,11.6c0,6.6-3.9,12.3-9.5,14.9c-1.5,0.7-3,1.1-4.7,1.3c-0.2,0-0.3,0-0.5,0v0.1
		h-29v27.8h-10.8v-60.5h38.1C483,109,487,110.8,490,113.9L490,113.9z M480.8,130.4c2-0.9,3.3-2.9,3.3-5c0-2-1-3.4-1.6-4
		c-0.7-0.7-2-1.6-3.9-1.6h-27.4V131h27.4C479.3,131,480.1,130.8,480.8,130.4L480.8,130.4z"/>
	<path class="st0" d="M368.4,161.6l-22.8-50.8c-0.8-1.9-2.6-3.1-4.5-3.1s-3.6,1.2-4.5,3.1l-22.8,50.8c-1.2,2.7-0.3,5.9,2.1,7.4
		c0.7,0.4,1.6,0.7,2.4,0.7c1.9,0,3.6-1.2,4.5-3.1l18.4-40.9l18.4,40.9c0.6,1.4,1.8,2.4,3.1,2.9c0.4,0.1,0.9,0.2,1.4,0.2
		c0.8,0,1.6-0.2,2.4-0.7C368.7,167.5,369.6,164.3,368.4,161.6z"/>
	<g>
		<path class="st0" d="M352.4,83.4v3.2H345v14.8h-3.2V86.6h-7.4v-3.2C334.4,83.4,352.4,83.4,352.4,83.4z"/>
		<path class="st0" d="M373,83.4v18h-3.2v-8.3h-11.6v8.3H355v-18h3.2v6.5h11.6v-6.5H373z"/>
		<path class="st0" d="M378.7,88.3V90h11.6v3.2h-11.6v3.4c0,0.9,0.7,1.6,1.6,1.6h13.1v3.2h-13.1c-2.7,0-4.8-2.2-4.8-4.9v-8.3
			c0-2.7,2.2-4.9,4.8-4.9h13.1v3.2h-13.1C379.5,86.6,378.7,87.4,378.7,88.3z"/>
	</g>
</g>
</svg>
