<?xml version="1.0" encoding="utf-8"?>
<!-- Generator: Adobe Illustrator 25.4.1, SVG Export Plug-In . SVG Version: 6.00 Build 0)  -->
<svg version="1.1" xmlns="http://www.w3.org/2000/svg" xmlns:xlink="http://www.w3.org/1999/xlink" x="0px" y="0px"
	 viewBox="0 0 566.4 316.3" style="enable-background:new 0 0 566.4 316.3;" xml:space="preserve">
<style type="text/css">
	.st0{fill:#FFFFFF;}
	.st1{fill:#3B4192;}
	.st2{fill:#1D1D1B;}
</style>
<g id="BG">
	<path class="st0" d="M190,261.4H69c-28.4,0-51.4-23-51.4-51.4V106.9c0-28.4,23-51.4,51.4-51.4h121c28.4,0,51.4,23,51.4,51.4V210
		C241.4,238.4,218.4,261.4,190,261.4z"/>
</g>
<g id="Layer_1">
	<path class="st1" d="M122.2,78.4c-2-3.8-6-6.2-10.3-6.2c-4.3,0-8.3,2.4-10.3,6.2L27.5,221c-3,5.7-0.7,12.7,4.9,15.6
		c1.7,0.9,3.5,1.3,5.3,1.3c4.2,0,8.2-2.3,10.3-6.2l63.9-122.8l63.9,122.8c2.9,5.7,9.9,7.9,15.6,4.9c5.7-3,7.9-9.9,4.9-15.6
		L122.2,78.4z M165.2,230.3l-7.4-14.3c-23-1.2-41.4-20.3-41.4-43.7c0-8.5,2.4-16.5,6.7-23.2L112,127.8
		c-10.8,11.7-17.5,27.4-17.5,44.5c0,36.2,29.4,65.6,65.6,65.6c3.7,0,7.3-0.3,10.8-0.9C168.6,235.3,166.6,233,165.2,230.3z
		 M160.1,106.7c-4.2,0-8.3,0.4-12.3,1.2l10.8,20.8c0.5,0,1,0,1.5,0c24.1,0,43.7,19.6,43.7,43.7c0,9.9-3.3,19-8.8,26.3l6.6,12.7
		c1.6,3.1,2.4,6.5,2.3,9.8c13.4-12,21.8-29.5,21.8-48.8C225.7,136.2,196.3,106.7,160.1,106.7z"/>
	<path class="st1" d="M322.5,207.7c0,16.7-13.6,30.3-30.3,30.3S262,224.4,262,207.7c0-16.7,13.6-30.3,30.3-30.3
		S322.5,191,322.5,207.7z M311.7,207.7c0-10.7-8.7-19.4-19.4-19.4c-10.7,0-19.4,8.7-19.4,19.4c0,10.7,8.7,19.5,19.4,19.5
		C302.9,227.2,311.7,218.4,311.7,207.7z"/>
	<path class="st2" d="M378.8,182.3c2.9,3,4.8,7.1,4.8,11.6c0,6.6-3.9,12.3-9.5,14.9c-1.5,0.7-3,1.1-4.7,1.3c-0.2,0-0.3,0-0.5,0v0.1
		h-29V238h-10.8v-60.5h38.1C371.7,177.5,375.7,179.3,378.8,182.3L378.8,182.3z M369.5,198.8c2-0.9,3.3-2.9,3.3-5c0-2-1-3.4-1.6-4
		c-0.7-0.7-2-1.6-3.9-1.6h-27.4v11.2h27.4C368,199.4,368.8,199.2,369.5,198.8L369.5,198.8z"/>
	<path class="st2" d="M441.9,182.3c2.9,3,4.8,7.1,4.8,11.6c0,6.6-3.9,12.3-9.5,14.9c-1.5,0.7-3,1.1-4.7,1.3c-0.2,0-0.3,0-0.5,0v0.1
		h-29V238h-10.8v-60.5h38.1C434.8,177.5,438.8,179.3,441.9,182.3L441.9,182.3z M432.6,198.8c2-0.9,3.3-2.9,3.3-5c0-2-1-3.4-1.6-4
		c-0.7-0.7-2-1.6-3.9-1.6H403v11.2h27.4C431.1,199.4,431.9,199.2,432.6,198.8L432.6,198.8z"/>
	<path class="st2" d="M501.6,194.2v-0.2c0-3.1-2.5-5.6-5.6-5.6h-24.4c-3.1,0-5.6,2.5-5.6,5.6v0.2c0,3.1,2.5,5.6,5.6,5.6h21.7
		c5.6,0,10.6,2.4,14.1,6.2c0.3,0.3,0.4,0.5,0.7,0.8c2.9,3.6,4.6,8.4,4.3,13.5c-0.7,10.1-9.5,17.7-19.6,17.7h-18.4
		c-10.5,0-19.1-8.5-19.1-19c0,0,0-0.1,0.1-0.1H466c0,0,0.1,0,0.1,0.1c0,4.6,3.7,8.2,8.3,8.2h18.7c4.2,0,7.9-3,8.5-7.1
		c0.7-5.1-3.3-9.5-8.3-9.5h-21.8c-4.4,0-8.4-1.7-11.3-4.6c-0.8-0.8-1.5-1.6-2.1-2.6c-1.8-2.6-2.9-5.8-2.9-9.2v-0.3
		c0-9,7.4-16.4,16.4-16.4H496c9,0,16.4,7.4,16.4,16.4v0.2c0,0,0,0.1-0.1,0.1L501.6,194.2C501.6,194.2,501.6,194.2,501.6,194.2z"/>
	<g>
		<path class="st2" d="M382.4,114.2c2.9,3,4.8,7.1,4.8,11.6c0,6.6-3.9,12.3-9.5,14.9c-1.5,0.7-3,1.1-4.7,1.3c-0.2,0-0.3,0-0.5,0v0.1
			h-29v27.8h-10.8v-60.5h38.1C375.3,109.3,379.4,111.1,382.4,114.2L382.4,114.2z M373.2,130.7c2-0.9,3.3-2.9,3.3-5c0-2-1-3.4-1.6-4
			c-0.7-0.7-2-1.6-3.9-1.6h-27.4v11.2h27.4C371.7,131.3,372.5,131.1,373.2,130.7L373.2,130.7z"/>
		<path class="st2" d="M445.5,114.2c2.9,3,4.8,7.1,4.8,11.6c0,6.6-3.9,12.3-9.5,14.9c-1.5,0.7-3,1.1-4.7,1.3c-0.2,0-0.3,0-0.5,0v0.1
			h-29v27.8h-10.8v-60.5H434C438.4,109.3,442.5,111.1,445.5,114.2L445.5,114.2z M436.3,130.7c2-0.9,3.3-2.9,3.3-5c0-2-1-3.4-1.6-4
			c-0.7-0.7-2-1.6-3.9-1.6h-27.4v11.2H434C434.8,131.3,435.6,131.1,436.3,130.7L436.3,130.7z"/>
		<path class="st1" d="M323.9,161.9l-22.8-50.8c-0.8-1.9-2.6-3.1-4.5-3.1c-1.9,0-3.6,1.2-4.5,3.1l-22.8,50.8
			c-1.2,2.7-0.3,5.9,2.1,7.4c0.7,0.4,1.6,0.7,2.4,0.7c1.9,0,3.6-1.2,4.5-3.1l18.4-40.9l18.4,40.9c0.6,1.4,1.8,2.4,3.1,2.9
			c0.4,0.1,0.9,0.2,1.4,0.2c0.8,0,1.6-0.2,2.4-0.7C324.2,167.8,325.1,164.6,323.9,161.9z"/>
	</g>
	<g>
		<g>
			<path d="M301.1,83.7v3.2h-7.4v14.8h-3.2V86.9h-7.4v-3.2H301.1z"/>
			<path d="M321.7,83.7v18h-3.2v-8.3h-11.6v8.3h-3.2v-18h3.2v6.5h11.6v-6.5H321.7z"/>
			<path d="M327.4,88.6v1.7H339v3.2h-11.6v3.4c0,0.9,0.7,1.6,1.6,1.6h13.1v3.2h-13.1c-2.7,0-4.8-2.2-4.8-4.9v-8.3
				c0-2.7,2.2-4.9,4.8-4.9h13.1v3.2h-13.1C328.2,86.9,327.4,87.7,327.4,88.6z"/>
		</g>
	</g>
</g>
</svg>
